<?xml version="1.0" encoding="utf-8"?>
<!DOCTYPE svg PUBLIC "-//W3C//DTD SVG 20010904//EN" "http://www.w3.org/TR/2001/REC-SVG-20010904/DTD/svg10.dtd">
<svg version="1.0" xmlns="http://www.w3.org/2000/svg" width="605px" height="605px" viewBox="0 0 605 605" preserveAspectRatio="xMidYMid meet">
 <g fill="#1dbf74">
  <path d="M240 595.4 c-58.9 -12.4 -107.4 -38.9 -152.3 -82.5 -34.9 -34.5 -58.5 -71.7 -74.1 -118.2 -9.2 -26.4 -11.2 -41.3 -12.8 -83.3 -2 -62.9 4 -92.6 30 -147 16 -32.9 23.2 -42.9 56.9 -76.1 32.9 -32.9 44.1 -41.3 76.5 -56.9 54.1 -26.4 83.7 -32.5 147 -30.5 59.3 2 95 12 143 40.1 33.7 20 82.9 68.5 102.2 100.2 50.9 87.3 57.7 189.5 18.4 281.3 -17.2 40.1 -59.7 92.6 -98.2 120.6 -25.2 18.4 -69.7 40.1 -98.2 47.7 -33.7 9.2 -105.8 11.6 -138.6 4.8z m-133 -313.7 c-0.8 -10.8 -1.2 -2 -1.2 18.8 0 20.8 0.4 29.6 1.2 19.2 0.8 -10.8 0.8 -27.6 0 -38.1z m60.1 10 c-0.8 -9.6 -1.6 -2.8 -1.6 14.8 0 17.6 0.8 25.2 1.6 17.2 0.8 -8.4 0.8 -22.8 0 -32.1z m236.4 14 c-0.8 -6.4 -1.6 -1.2 -1.6 10.8 0 12 0.8 17.2 1.6 11.2 0.8 -6.4 0.8 -16 0 -22z m73.7 5.6 c0.4 -12.4 -0.4 -24 -1.6 -25.6 -1.6 -1.2 -2.8 9.6 -2.8 24.8 0 32.9 3.2 33.3 4.4 0.8z"/>
 </g>
 <g fill="#ffffff">
  <path d="M309.7 344.6 c-15.2 -9.2 -21.2 -19.2 -21.2 -35.7 0 -27.2 16.8 -44.5 44.1 -44.5 17.2 0 36.1 18.8 36.1 35.7 l0 12.4 -26 0 c-14.4 0 -26 1.6 -26 3.2 0 11.2 21.6 16.4 35.7 8.8 6 -2.8 8 -1.6 12 6.4 4 9.2 3.6 10.4 -9.6 16 -18.4 7.6 -29.6 7.2 -44.9 -2.4z m30.9 -52.1 c0 -7.6 -12.4 -9.2 -19.2 -2.4 -6 6 -5.6 6.4 6.4 6.4 7.2 0 12.8 -2 12.8 -4z"/>
  <path d="M80.1 338.6 c0 -6.4 2.4 -10 6 -10 4.4 0 6 -4.8 6 -19.6 0 -13.6 -1.6 -20.4 -6 -22 -3.2 -1.2 -6 -6 -6 -10.4 0 -4.4 2.8 -8 6 -8 3.2 0 6 -3.6 6 -8 0 -13.6 17.6 -28 34.1 -28 11.2 0 14 1.6 14 8 0 5.2 -4 9.6 -10 12 -18.8 7.2 -10.8 12 20 12 l30 0 0 32.1 c0 25.6 1.2 32.1 6 32.1 3.6 0 6 3.6 6 10 0 9.6 -1.2 10 -24 10 -22.8 0 -24 -0.4 -24 -10 0 -5.6 2 -10 4 -10 2.4 0 4 -8.8 4 -20 l0 -20 -16 0 -16 0 0 20 c0 15.2 1.6 20 6 20 3.6 0 6 3.6 6 10 0 9.6 -0.8 10 -26 10 -25.2 0 -26 -0.4 -26 -10z"/>
  <path d="M210.3 317.7 c-6.4 -17.2 -13.6 -32.9 -16.8 -34.5 -2.8 -1.6 -5.2 -6.8 -5.2 -10.8 0 -7.2 2.8 -8 22.4 -8 l22.8 0 -2.8 13.2 c-1.6 6.8 -0.4 21.6 2.4 32.1 l4.8 19.2 5.2 -17.2 c2.8 -9.6 4 -24 2.4 -32.1 l-2.4 -15.2 22.8 0 c21.2 0 22.4 0.4 22.4 10 0 7.2 -1.6 9.2 -6 7.6 -3.6 -1.6 -6 -0.4 -6 2.8 0 3.2 -4.8 18.8 -10.4 34.9 l-10.8 28.8 -16.8 0 -16.8 0 -11.2 -30.9z"/>
  <path d="M376.6 338.6 c0 -6.4 2.4 -10 6 -10 4.4 0 6 -4.8 6 -20 0 -14.4 -1.6 -20.8 -6 -22.4 -3.2 -1.6 -6 -6.8 -6 -12 0 -8 2 -9.6 11.6 -9.6 16.8 0 24.4 3.6 24.4 12.4 0 6.4 1.2 6 10 -2.4 14.4 -14.8 22 -13.2 22 4.4 0 13.6 -0.4 14 -11.6 11.6 -11.6 -2.4 -12 -2 -14.8 16 -1.6 12 -1.2 20 2 23.2 2.4 2.4 4.4 7.6 4.4 11.6 0 6 -3.6 7.2 -24 7.2 -22.8 0 -24 -0.4 -24 -10z"/>
  <path d="M448.7 338.6 c0 -6.4 2.4 -10 6 -10 4.8 0 6 -5.2 6 -24 0 -19.2 -1.2 -24 -6.4 -24 -3.6 0 -5.6 -2.8 -4.8 -6.8 2 -11.2 28.8 -12 36.1 -1.6 6 8.4 6 8.4 13.2 0.4 11.2 -12.4 18 -10 18 6 0 11.2 -1.6 14 -7.6 14 -4.4 0 -10.8 4 -14 8.8 -8 11.6 -8.4 27.2 -0.4 27.2 3.6 0 6 3.6 6 10 0 9.6 -0.8 10 -26 10 -25.2 0 -26 -0.4 -26 -10z"/>
  <path d="M157.9 250.8 c-4 -10.4 1.6 -19.2 11.2 -17.6 6.8 0.8 9.2 4 9.2 11.2 0 7.2 -2.4 10.4 -9.2 11.2 -5.2 0.8 -10 -1.2 -11.2 -4.8z"/>
 </g>
</svg>